<mxfile host="app.diagrams.net" modified="2023-03-30T12:40:46.353Z" agent="Mozilla/5.0 (Windows NT 10.0; Win64; x64) AppleWebKit/537.36 (KHTML, like Gecko) Chrome/111.0.0.0 Safari/537.36 Edg/111.0.1661.54" etag="lOIJsP6C4vkovdETzoIi" version="21.1.2" type="device">
  <diagram name="Page-1" id="KkOa2OGKxXnurO6Ihqwi">
    <mxGraphModel dx="1377" dy="756" grid="1" gridSize="10" guides="1" tooltips="1" connect="1" arrows="1" fold="1" page="1" pageScale="1" pageWidth="827" pageHeight="1169" math="0" shadow="0">
      <root>
        <mxCell id="0" />
        <mxCell id="1" parent="0" />
        <mxCell id="7RI2X-wWIbWIkcvbnXoQ-1" value="kamers" style="shape=table;startSize=30;container=1;collapsible=0;childLayout=tableLayout;fixedRows=1;rowLines=0;fontStyle=0;strokeColor=default;fontSize=16;" vertex="1" parent="1">
          <mxGeometry x="60" y="410" width="260" height="160" as="geometry" />
        </mxCell>
        <mxCell id="7RI2X-wWIbWIkcvbnXoQ-2" value="" style="shape=tableRow;horizontal=0;startSize=0;swimlaneHead=0;swimlaneBody=0;top=0;left=0;bottom=0;right=0;collapsible=0;dropTarget=0;fillColor=none;points=[[0,0.5],[1,0.5]];portConstraint=eastwest;strokeColor=inherit;fontSize=16;" vertex="1" parent="7RI2X-wWIbWIkcvbnXoQ-1">
          <mxGeometry y="30" width="260" height="30" as="geometry" />
        </mxCell>
        <mxCell id="7RI2X-wWIbWIkcvbnXoQ-3" value="&lt;b&gt;PK&lt;/b&gt;" style="shape=partialRectangle;html=1;whiteSpace=wrap;connectable=0;fillColor=none;top=0;left=0;bottom=0;right=0;overflow=hidden;pointerEvents=1;strokeColor=inherit;fontSize=16;" vertex="1" parent="7RI2X-wWIbWIkcvbnXoQ-2">
          <mxGeometry width="52" height="30" as="geometry">
            <mxRectangle width="52" height="30" as="alternateBounds" />
          </mxGeometry>
        </mxCell>
        <mxCell id="7RI2X-wWIbWIkcvbnXoQ-4" value="&lt;b&gt;kamerNO&amp;nbsp; int&amp;nbsp; NOT NULL&lt;/b&gt;" style="shape=partialRectangle;html=1;whiteSpace=wrap;connectable=0;fillColor=none;top=0;left=0;bottom=0;right=0;align=left;spacingLeft=6;overflow=hidden;strokeColor=inherit;fontSize=16;" vertex="1" parent="7RI2X-wWIbWIkcvbnXoQ-2">
          <mxGeometry x="52" width="208" height="30" as="geometry">
            <mxRectangle width="208" height="30" as="alternateBounds" />
          </mxGeometry>
        </mxCell>
        <mxCell id="7RI2X-wWIbWIkcvbnXoQ-5" value="" style="shape=tableRow;horizontal=0;startSize=0;swimlaneHead=0;swimlaneBody=0;top=0;left=0;bottom=0;right=0;collapsible=0;dropTarget=0;fillColor=none;points=[[0,0.5],[1,0.5]];portConstraint=eastwest;strokeColor=inherit;fontSize=16;" vertex="1" parent="7RI2X-wWIbWIkcvbnXoQ-1">
          <mxGeometry y="60" width="260" height="30" as="geometry" />
        </mxCell>
        <mxCell id="7RI2X-wWIbWIkcvbnXoQ-6" value="" style="shape=partialRectangle;html=1;whiteSpace=wrap;connectable=0;fillColor=none;top=0;left=0;bottom=0;right=0;overflow=hidden;strokeColor=inherit;fontSize=16;" vertex="1" parent="7RI2X-wWIbWIkcvbnXoQ-5">
          <mxGeometry width="52" height="30" as="geometry">
            <mxRectangle width="52" height="30" as="alternateBounds" />
          </mxGeometry>
        </mxCell>
        <mxCell id="7RI2X-wWIbWIkcvbnXoQ-7" value="soort_kamer&amp;nbsp; varchar(255)" style="shape=partialRectangle;html=1;whiteSpace=wrap;connectable=0;fillColor=none;top=0;left=0;bottom=0;right=0;align=left;spacingLeft=6;overflow=hidden;strokeColor=inherit;fontSize=16;" vertex="1" parent="7RI2X-wWIbWIkcvbnXoQ-5">
          <mxGeometry x="52" width="208" height="30" as="geometry">
            <mxRectangle width="208" height="30" as="alternateBounds" />
          </mxGeometry>
        </mxCell>
        <mxCell id="7RI2X-wWIbWIkcvbnXoQ-8" value="" style="shape=tableRow;horizontal=0;startSize=0;swimlaneHead=0;swimlaneBody=0;top=0;left=0;bottom=0;right=0;collapsible=0;dropTarget=0;fillColor=none;points=[[0,0.5],[1,0.5]];portConstraint=eastwest;strokeColor=inherit;fontSize=16;" vertex="1" parent="7RI2X-wWIbWIkcvbnXoQ-1">
          <mxGeometry y="90" width="260" height="30" as="geometry" />
        </mxCell>
        <mxCell id="7RI2X-wWIbWIkcvbnXoQ-9" value="" style="shape=partialRectangle;html=1;whiteSpace=wrap;connectable=0;fillColor=none;top=0;left=0;bottom=0;right=0;overflow=hidden;strokeColor=inherit;fontSize=16;" vertex="1" parent="7RI2X-wWIbWIkcvbnXoQ-8">
          <mxGeometry width="52" height="30" as="geometry">
            <mxRectangle width="52" height="30" as="alternateBounds" />
          </mxGeometry>
        </mxCell>
        <mxCell id="7RI2X-wWIbWIkcvbnXoQ-10" value="bedden varchar(255)" style="shape=partialRectangle;html=1;whiteSpace=wrap;connectable=0;fillColor=none;top=0;left=0;bottom=0;right=0;align=left;spacingLeft=6;overflow=hidden;strokeColor=inherit;fontSize=16;" vertex="1" parent="7RI2X-wWIbWIkcvbnXoQ-8">
          <mxGeometry x="52" width="208" height="30" as="geometry">
            <mxRectangle width="208" height="30" as="alternateBounds" />
          </mxGeometry>
        </mxCell>
        <mxCell id="7RI2X-wWIbWIkcvbnXoQ-11" value="medewerkers" style="shape=table;startSize=30;container=1;collapsible=0;childLayout=tableLayout;fixedRows=1;rowLines=0;fontStyle=0;strokeColor=default;fontSize=16;" vertex="1" parent="1">
          <mxGeometry x="510" y="520" width="316" height="200" as="geometry" />
        </mxCell>
        <mxCell id="7RI2X-wWIbWIkcvbnXoQ-12" value="" style="shape=tableRow;horizontal=0;startSize=0;swimlaneHead=0;swimlaneBody=0;top=0;left=0;bottom=0;right=0;collapsible=0;dropTarget=0;fillColor=none;points=[[0,0.5],[1,0.5]];portConstraint=eastwest;strokeColor=inherit;fontSize=16;" vertex="1" parent="7RI2X-wWIbWIkcvbnXoQ-11">
          <mxGeometry y="30" width="316" height="30" as="geometry" />
        </mxCell>
        <mxCell id="7RI2X-wWIbWIkcvbnXoQ-13" value="&lt;b&gt;PK&lt;/b&gt;" style="shape=partialRectangle;html=1;whiteSpace=wrap;connectable=0;fillColor=none;top=0;left=0;bottom=0;right=0;overflow=hidden;pointerEvents=1;strokeColor=inherit;fontSize=16;" vertex="1" parent="7RI2X-wWIbWIkcvbnXoQ-12">
          <mxGeometry width="71" height="30" as="geometry">
            <mxRectangle width="71" height="30" as="alternateBounds" />
          </mxGeometry>
        </mxCell>
        <mxCell id="7RI2X-wWIbWIkcvbnXoQ-14" value="&lt;b&gt;MedewerkerNO&amp;nbsp; &amp;nbsp;int not null&lt;/b&gt;" style="shape=partialRectangle;html=1;whiteSpace=wrap;connectable=0;fillColor=none;top=0;left=0;bottom=0;right=0;align=left;spacingLeft=6;overflow=hidden;strokeColor=inherit;fontSize=16;" vertex="1" parent="7RI2X-wWIbWIkcvbnXoQ-12">
          <mxGeometry x="71" width="245" height="30" as="geometry">
            <mxRectangle width="245" height="30" as="alternateBounds" />
          </mxGeometry>
        </mxCell>
        <mxCell id="7RI2X-wWIbWIkcvbnXoQ-15" value="" style="shape=tableRow;horizontal=0;startSize=0;swimlaneHead=0;swimlaneBody=0;top=0;left=0;bottom=0;right=0;collapsible=0;dropTarget=0;fillColor=none;points=[[0,0.5],[1,0.5]];portConstraint=eastwest;strokeColor=inherit;fontSize=16;" vertex="1" parent="7RI2X-wWIbWIkcvbnXoQ-11">
          <mxGeometry y="60" width="316" height="30" as="geometry" />
        </mxCell>
        <mxCell id="7RI2X-wWIbWIkcvbnXoQ-16" value="" style="shape=partialRectangle;html=1;whiteSpace=wrap;connectable=0;fillColor=none;top=0;left=0;bottom=0;right=0;overflow=hidden;strokeColor=inherit;fontSize=16;" vertex="1" parent="7RI2X-wWIbWIkcvbnXoQ-15">
          <mxGeometry width="71" height="30" as="geometry">
            <mxRectangle width="71" height="30" as="alternateBounds" />
          </mxGeometry>
        </mxCell>
        <mxCell id="7RI2X-wWIbWIkcvbnXoQ-17" value="naam&amp;nbsp; &amp;nbsp; &amp;nbsp;varchar(255)" style="shape=partialRectangle;html=1;whiteSpace=wrap;connectable=0;fillColor=none;top=0;left=0;bottom=0;right=0;align=left;spacingLeft=6;overflow=hidden;strokeColor=inherit;fontSize=16;" vertex="1" parent="7RI2X-wWIbWIkcvbnXoQ-15">
          <mxGeometry x="71" width="245" height="30" as="geometry">
            <mxRectangle width="245" height="30" as="alternateBounds" />
          </mxGeometry>
        </mxCell>
        <mxCell id="7RI2X-wWIbWIkcvbnXoQ-18" value="" style="shape=tableRow;horizontal=0;startSize=0;swimlaneHead=0;swimlaneBody=0;top=0;left=0;bottom=0;right=0;collapsible=0;dropTarget=0;fillColor=none;points=[[0,0.5],[1,0.5]];portConstraint=eastwest;strokeColor=inherit;fontSize=16;" vertex="1" parent="7RI2X-wWIbWIkcvbnXoQ-11">
          <mxGeometry y="90" width="316" height="30" as="geometry" />
        </mxCell>
        <mxCell id="7RI2X-wWIbWIkcvbnXoQ-19" value="" style="shape=partialRectangle;html=1;whiteSpace=wrap;connectable=0;fillColor=none;top=0;left=0;bottom=0;right=0;overflow=hidden;strokeColor=inherit;fontSize=16;" vertex="1" parent="7RI2X-wWIbWIkcvbnXoQ-18">
          <mxGeometry width="71" height="30" as="geometry">
            <mxRectangle width="71" height="30" as="alternateBounds" />
          </mxGeometry>
        </mxCell>
        <mxCell id="7RI2X-wWIbWIkcvbnXoQ-20" value="werkt_waar&amp;nbsp; &amp;nbsp; varchar(255)" style="shape=partialRectangle;html=1;whiteSpace=wrap;connectable=0;fillColor=none;top=0;left=0;bottom=0;right=0;align=left;spacingLeft=6;overflow=hidden;strokeColor=inherit;fontSize=16;" vertex="1" parent="7RI2X-wWIbWIkcvbnXoQ-18">
          <mxGeometry x="71" width="245" height="30" as="geometry">
            <mxRectangle width="245" height="30" as="alternateBounds" />
          </mxGeometry>
        </mxCell>
        <mxCell id="7RI2X-wWIbWIkcvbnXoQ-21" value="reserveringen" style="shape=table;startSize=30;container=1;collapsible=0;childLayout=tableLayout;fixedRows=1;rowLines=0;fontStyle=0;strokeColor=default;fontSize=16;" vertex="1" parent="1">
          <mxGeometry x="70" y="20" width="310" height="280" as="geometry" />
        </mxCell>
        <mxCell id="7RI2X-wWIbWIkcvbnXoQ-22" value="" style="shape=tableRow;horizontal=0;startSize=0;swimlaneHead=0;swimlaneBody=0;top=0;left=0;bottom=0;right=0;collapsible=0;dropTarget=0;fillColor=none;points=[[0,0.5],[1,0.5]];portConstraint=eastwest;strokeColor=inherit;fontSize=16;" vertex="1" parent="7RI2X-wWIbWIkcvbnXoQ-21">
          <mxGeometry y="30" width="310" height="30" as="geometry" />
        </mxCell>
        <mxCell id="7RI2X-wWIbWIkcvbnXoQ-23" value="&lt;b&gt;PK&lt;/b&gt;" style="shape=partialRectangle;html=1;whiteSpace=wrap;connectable=0;fillColor=none;top=0;left=0;bottom=0;right=0;overflow=hidden;pointerEvents=1;strokeColor=inherit;fontSize=16;" vertex="1" parent="7RI2X-wWIbWIkcvbnXoQ-22">
          <mxGeometry width="60" height="30" as="geometry">
            <mxRectangle width="60" height="30" as="alternateBounds" />
          </mxGeometry>
        </mxCell>
        <mxCell id="7RI2X-wWIbWIkcvbnXoQ-24" value="&lt;b&gt;reserveringNO&amp;nbsp; int NOT NULL&lt;/b&gt;" style="shape=partialRectangle;html=1;whiteSpace=wrap;connectable=0;fillColor=none;top=0;left=0;bottom=0;right=0;align=left;spacingLeft=6;overflow=hidden;strokeColor=inherit;fontSize=16;" vertex="1" parent="7RI2X-wWIbWIkcvbnXoQ-22">
          <mxGeometry x="60" width="250" height="30" as="geometry">
            <mxRectangle width="250" height="30" as="alternateBounds" />
          </mxGeometry>
        </mxCell>
        <mxCell id="7RI2X-wWIbWIkcvbnXoQ-28" value="" style="shape=tableRow;horizontal=0;startSize=0;swimlaneHead=0;swimlaneBody=0;top=0;left=0;bottom=0;right=0;collapsible=0;dropTarget=0;fillColor=none;points=[[0,0.5],[1,0.5]];portConstraint=eastwest;strokeColor=inherit;fontSize=16;" vertex="1" parent="7RI2X-wWIbWIkcvbnXoQ-21">
          <mxGeometry y="60" width="310" height="30" as="geometry" />
        </mxCell>
        <mxCell id="7RI2X-wWIbWIkcvbnXoQ-29" value="&lt;b&gt;FK&lt;/b&gt;" style="shape=partialRectangle;html=1;whiteSpace=wrap;connectable=0;fillColor=none;top=0;left=0;bottom=0;right=0;overflow=hidden;strokeColor=inherit;fontSize=16;" vertex="1" parent="7RI2X-wWIbWIkcvbnXoQ-28">
          <mxGeometry width="60" height="30" as="geometry">
            <mxRectangle width="60" height="30" as="alternateBounds" />
          </mxGeometry>
        </mxCell>
        <mxCell id="7RI2X-wWIbWIkcvbnXoQ-30" value="&lt;b&gt;klant_id int NOT NULL&lt;/b&gt;" style="shape=partialRectangle;html=1;whiteSpace=wrap;connectable=0;fillColor=none;top=0;left=0;bottom=0;right=0;align=left;spacingLeft=6;overflow=hidden;strokeColor=inherit;fontSize=16;" vertex="1" parent="7RI2X-wWIbWIkcvbnXoQ-28">
          <mxGeometry x="60" width="250" height="30" as="geometry">
            <mxRectangle width="250" height="30" as="alternateBounds" />
          </mxGeometry>
        </mxCell>
        <mxCell id="7RI2X-wWIbWIkcvbnXoQ-25" value="" style="shape=tableRow;horizontal=0;startSize=0;swimlaneHead=0;swimlaneBody=0;top=0;left=0;bottom=0;right=0;collapsible=0;dropTarget=0;fillColor=none;points=[[0,0.5],[1,0.5]];portConstraint=eastwest;strokeColor=inherit;fontSize=16;" vertex="1" parent="7RI2X-wWIbWIkcvbnXoQ-21">
          <mxGeometry y="90" width="310" height="30" as="geometry" />
        </mxCell>
        <mxCell id="7RI2X-wWIbWIkcvbnXoQ-26" value="&lt;b&gt;FK&lt;/b&gt;" style="shape=partialRectangle;html=1;whiteSpace=wrap;connectable=0;fillColor=none;top=0;left=0;bottom=0;right=0;overflow=hidden;strokeColor=inherit;fontSize=16;" vertex="1" parent="7RI2X-wWIbWIkcvbnXoQ-25">
          <mxGeometry width="60" height="30" as="geometry">
            <mxRectangle width="60" height="30" as="alternateBounds" />
          </mxGeometry>
        </mxCell>
        <mxCell id="7RI2X-wWIbWIkcvbnXoQ-27" value="&lt;b&gt;kamerNO&amp;nbsp; int NOT NULL&lt;/b&gt;" style="shape=partialRectangle;html=1;whiteSpace=wrap;connectable=0;fillColor=none;top=0;left=0;bottom=0;right=0;align=left;spacingLeft=6;overflow=hidden;strokeColor=inherit;fontSize=16;" vertex="1" parent="7RI2X-wWIbWIkcvbnXoQ-25">
          <mxGeometry x="60" width="250" height="30" as="geometry">
            <mxRectangle width="250" height="30" as="alternateBounds" />
          </mxGeometry>
        </mxCell>
        <mxCell id="7RI2X-wWIbWIkcvbnXoQ-31" value="contactgegevens" style="shape=table;startSize=30;container=1;collapsible=0;childLayout=tableLayout;fixedRows=1;rowLines=0;fontStyle=0;strokeColor=default;fontSize=16;" vertex="1" parent="1">
          <mxGeometry x="540" y="160" width="370" height="310" as="geometry" />
        </mxCell>
        <mxCell id="7RI2X-wWIbWIkcvbnXoQ-32" value="" style="shape=tableRow;horizontal=0;startSize=0;swimlaneHead=0;swimlaneBody=0;top=0;left=0;bottom=0;right=0;collapsible=0;dropTarget=0;fillColor=none;points=[[0,0.5],[1,0.5]];portConstraint=eastwest;strokeColor=inherit;fontSize=16;" vertex="1" parent="7RI2X-wWIbWIkcvbnXoQ-31">
          <mxGeometry y="30" width="370" height="30" as="geometry" />
        </mxCell>
        <mxCell id="7RI2X-wWIbWIkcvbnXoQ-33" value="&lt;b&gt;PK&lt;/b&gt;" style="shape=partialRectangle;html=1;whiteSpace=wrap;connectable=0;fillColor=none;top=0;left=0;bottom=0;right=0;overflow=hidden;pointerEvents=1;strokeColor=inherit;fontSize=16;" vertex="1" parent="7RI2X-wWIbWIkcvbnXoQ-32">
          <mxGeometry width="82" height="30" as="geometry">
            <mxRectangle width="82" height="30" as="alternateBounds" />
          </mxGeometry>
        </mxCell>
        <mxCell id="7RI2X-wWIbWIkcvbnXoQ-34" value="&lt;b&gt;klant_id&amp;nbsp; &amp;nbsp;int&amp;nbsp; NOT NULL&amp;nbsp;&amp;nbsp;&lt;/b&gt;" style="shape=partialRectangle;html=1;whiteSpace=wrap;connectable=0;fillColor=none;top=0;left=0;bottom=0;right=0;align=left;spacingLeft=6;overflow=hidden;strokeColor=inherit;fontSize=16;" vertex="1" parent="7RI2X-wWIbWIkcvbnXoQ-32">
          <mxGeometry x="82" width="288" height="30" as="geometry">
            <mxRectangle width="288" height="30" as="alternateBounds" />
          </mxGeometry>
        </mxCell>
        <mxCell id="7RI2X-wWIbWIkcvbnXoQ-35" value="" style="shape=tableRow;horizontal=0;startSize=0;swimlaneHead=0;swimlaneBody=0;top=0;left=0;bottom=0;right=0;collapsible=0;dropTarget=0;fillColor=none;points=[[0,0.5],[1,0.5]];portConstraint=eastwest;strokeColor=inherit;fontSize=16;" vertex="1" parent="7RI2X-wWIbWIkcvbnXoQ-31">
          <mxGeometry y="60" width="370" height="30" as="geometry" />
        </mxCell>
        <mxCell id="7RI2X-wWIbWIkcvbnXoQ-36" value="" style="shape=partialRectangle;html=1;whiteSpace=wrap;connectable=0;fillColor=none;top=0;left=0;bottom=0;right=0;overflow=hidden;strokeColor=inherit;fontSize=16;" vertex="1" parent="7RI2X-wWIbWIkcvbnXoQ-35">
          <mxGeometry width="82" height="30" as="geometry">
            <mxRectangle width="82" height="30" as="alternateBounds" />
          </mxGeometry>
        </mxCell>
        <mxCell id="7RI2X-wWIbWIkcvbnXoQ-37" value="" style="shape=partialRectangle;html=1;whiteSpace=wrap;connectable=0;fillColor=none;top=0;left=0;bottom=0;right=0;align=left;spacingLeft=6;overflow=hidden;strokeColor=inherit;fontSize=16;" vertex="1" parent="7RI2X-wWIbWIkcvbnXoQ-35">
          <mxGeometry x="82" width="288" height="30" as="geometry">
            <mxRectangle width="288" height="30" as="alternateBounds" />
          </mxGeometry>
        </mxCell>
        <mxCell id="7RI2X-wWIbWIkcvbnXoQ-38" value="" style="shape=tableRow;horizontal=0;startSize=0;swimlaneHead=0;swimlaneBody=0;top=0;left=0;bottom=0;right=0;collapsible=0;dropTarget=0;fillColor=none;points=[[0,0.5],[1,0.5]];portConstraint=eastwest;strokeColor=inherit;fontSize=16;" vertex="1" parent="7RI2X-wWIbWIkcvbnXoQ-31">
          <mxGeometry y="90" width="370" height="30" as="geometry" />
        </mxCell>
        <mxCell id="7RI2X-wWIbWIkcvbnXoQ-39" value="" style="shape=partialRectangle;html=1;whiteSpace=wrap;connectable=0;fillColor=none;top=0;left=0;bottom=0;right=0;overflow=hidden;strokeColor=inherit;fontSize=16;" vertex="1" parent="7RI2X-wWIbWIkcvbnXoQ-38">
          <mxGeometry width="82" height="30" as="geometry">
            <mxRectangle width="82" height="30" as="alternateBounds" />
          </mxGeometry>
        </mxCell>
        <mxCell id="7RI2X-wWIbWIkcvbnXoQ-40" value="naam&amp;nbsp; varchar(255)" style="shape=partialRectangle;html=1;whiteSpace=wrap;connectable=0;fillColor=none;top=0;left=0;bottom=0;right=0;align=left;spacingLeft=6;overflow=hidden;strokeColor=inherit;fontSize=16;" vertex="1" parent="7RI2X-wWIbWIkcvbnXoQ-38">
          <mxGeometry x="82" width="288" height="30" as="geometry">
            <mxRectangle width="288" height="30" as="alternateBounds" />
          </mxGeometry>
        </mxCell>
        <mxCell id="7RI2X-wWIbWIkcvbnXoQ-42" value="huisdieren&amp;nbsp; varchar(255)" style="shape=partialRectangle;html=1;whiteSpace=wrap;connectable=0;fillColor=none;top=0;left=0;bottom=0;right=0;align=left;spacingLeft=6;overflow=hidden;strokeColor=inherit;fontSize=16;" vertex="1" parent="1">
          <mxGeometry x="110" y="520" width="200" height="50" as="geometry">
            <mxRectangle width="160" height="30" as="alternateBounds" />
          </mxGeometry>
        </mxCell>
        <mxCell id="7RI2X-wWIbWIkcvbnXoQ-43" value="" style="shape=tableRow;horizontal=0;startSize=0;swimlaneHead=0;swimlaneBody=0;top=0;left=0;bottom=0;right=0;collapsible=0;dropTarget=0;fillColor=none;points=[[0,0.5],[1,0.5]];portConstraint=eastwest;strokeColor=inherit;fontSize=16;" vertex="1" parent="1">
          <mxGeometry x="70" y="170" width="310" height="30" as="geometry" />
        </mxCell>
        <mxCell id="7RI2X-wWIbWIkcvbnXoQ-44" value="" style="shape=partialRectangle;html=1;whiteSpace=wrap;connectable=0;fillColor=none;top=0;left=0;bottom=0;right=0;overflow=hidden;strokeColor=inherit;fontSize=16;" vertex="1" parent="7RI2X-wWIbWIkcvbnXoQ-43">
          <mxGeometry width="60" height="30" as="geometry">
            <mxRectangle width="60" height="30" as="alternateBounds" />
          </mxGeometry>
        </mxCell>
        <mxCell id="7RI2X-wWIbWIkcvbnXoQ-46" value="totaal prijs&amp;nbsp; &amp;nbsp; decimal" style="shape=partialRectangle;html=1;whiteSpace=wrap;connectable=0;fillColor=none;top=0;left=0;bottom=0;right=0;align=left;spacingLeft=6;overflow=hidden;strokeColor=inherit;fontSize=16;" vertex="1" parent="1">
          <mxGeometry x="130" y="240" width="250" height="30" as="geometry">
            <mxRectangle width="250" height="30" as="alternateBounds" />
          </mxGeometry>
        </mxCell>
        <mxCell id="7RI2X-wWIbWIkcvbnXoQ-47" value="achternaam&amp;nbsp; varchar(255)" style="shape=partialRectangle;html=1;whiteSpace=wrap;connectable=0;fillColor=none;top=0;left=0;bottom=0;right=0;align=left;spacingLeft=6;overflow=hidden;strokeColor=inherit;fontSize=16;" vertex="1" parent="1">
          <mxGeometry x="622" y="290" width="288" height="30" as="geometry">
            <mxRectangle width="288" height="30" as="alternateBounds" />
          </mxGeometry>
        </mxCell>
        <mxCell id="7RI2X-wWIbWIkcvbnXoQ-48" value="adres&amp;nbsp; varchar(255)" style="shape=partialRectangle;html=1;whiteSpace=wrap;connectable=0;fillColor=none;top=0;left=0;bottom=0;right=0;align=left;spacingLeft=6;overflow=hidden;strokeColor=inherit;fontSize=16;" vertex="1" parent="1">
          <mxGeometry x="622" y="330" width="288" height="30" as="geometry">
            <mxRectangle width="288" height="30" as="alternateBounds" />
          </mxGeometry>
        </mxCell>
        <mxCell id="7RI2X-wWIbWIkcvbnXoQ-49" value="telefoonnummer&amp;nbsp; int" style="shape=partialRectangle;html=1;whiteSpace=wrap;connectable=0;fillColor=none;top=0;left=0;bottom=0;right=0;align=left;spacingLeft=6;overflow=hidden;strokeColor=inherit;fontSize=16;" vertex="1" parent="1">
          <mxGeometry x="622" y="370" width="288" height="30" as="geometry">
            <mxRectangle width="288" height="30" as="alternateBounds" />
          </mxGeometry>
        </mxCell>
        <mxCell id="7RI2X-wWIbWIkcvbnXoQ-50" value="email&amp;nbsp; varchar(255)" style="shape=partialRectangle;html=1;whiteSpace=wrap;connectable=0;fillColor=none;top=0;left=0;bottom=0;right=0;align=left;spacingLeft=6;overflow=hidden;strokeColor=inherit;fontSize=16;" vertex="1" parent="1">
          <mxGeometry x="622" y="410" width="288" height="30" as="geometry">
            <mxRectangle width="288" height="30" as="alternateBounds" />
          </mxGeometry>
        </mxCell>
        <mxCell id="7RI2X-wWIbWIkcvbnXoQ-51" value="" style="endArrow=none;html=1;rounded=0;entryX=0.222;entryY=1.067;entryDx=0;entryDy=0;entryPerimeter=0;" edge="1" parent="1" target="7RI2X-wWIbWIkcvbnXoQ-38">
          <mxGeometry width="50" height="50" relative="1" as="geometry">
            <mxPoint x="622" y="470" as="sourcePoint" />
            <mxPoint x="440" y="360" as="targetPoint" />
          </mxGeometry>
        </mxCell>
        <mxCell id="7RI2X-wWIbWIkcvbnXoQ-52" value="werkt_hoeveel&amp;nbsp; &amp;nbsp; varchar(255)" style="shape=partialRectangle;html=1;whiteSpace=wrap;connectable=0;fillColor=none;top=0;left=0;bottom=0;right=0;align=left;spacingLeft=6;overflow=hidden;strokeColor=inherit;fontSize=16;" vertex="1" parent="1">
          <mxGeometry x="580" y="640" width="245" height="30" as="geometry">
            <mxRectangle width="245" height="30" as="alternateBounds" />
          </mxGeometry>
        </mxCell>
        <mxCell id="7RI2X-wWIbWIkcvbnXoQ-55" value="" style="endArrow=none;html=1;rounded=0;entryX=0.222;entryY=1;entryDx=0;entryDy=0;entryPerimeter=0;" edge="1" parent="1" target="7RI2X-wWIbWIkcvbnXoQ-18">
          <mxGeometry width="50" height="50" relative="1" as="geometry">
            <mxPoint x="580" y="720" as="sourcePoint" />
            <mxPoint x="310" y="640" as="targetPoint" />
          </mxGeometry>
        </mxCell>
        <mxCell id="7RI2X-wWIbWIkcvbnXoQ-58" value="check-outdatum&amp;nbsp; &amp;nbsp; datetime" style="shape=partialRectangle;html=1;whiteSpace=wrap;connectable=0;fillColor=none;top=0;left=0;bottom=0;right=0;align=left;spacingLeft=6;overflow=hidden;strokeColor=inherit;fontSize=16;" vertex="1" parent="1">
          <mxGeometry x="130" y="180" width="250" height="30" as="geometry">
            <mxRectangle width="250" height="30" as="alternateBounds" />
          </mxGeometry>
        </mxCell>
        <mxCell id="7RI2X-wWIbWIkcvbnXoQ-45" value="aantal personen&amp;nbsp; &amp;nbsp; &amp;nbsp;int" style="shape=partialRectangle;html=1;whiteSpace=wrap;connectable=0;fillColor=none;top=0;left=0;bottom=0;right=0;align=left;spacingLeft=6;overflow=hidden;strokeColor=inherit;fontSize=16;" vertex="1" parent="1">
          <mxGeometry x="130" y="210" width="250" height="30" as="geometry">
            <mxRectangle width="250" height="30" as="alternateBounds" />
          </mxGeometry>
        </mxCell>
        <mxCell id="7RI2X-wWIbWIkcvbnXoQ-61" value="check-indatum&amp;nbsp; &amp;nbsp; datetime" style="shape=partialRectangle;html=1;whiteSpace=wrap;connectable=0;fillColor=none;top=0;left=0;bottom=0;right=0;align=left;spacingLeft=6;overflow=hidden;strokeColor=inherit;fontSize=16;" vertex="1" parent="1">
          <mxGeometry x="130" y="150" width="250" height="30" as="geometry">
            <mxRectangle width="250" height="30" as="alternateBounds" />
          </mxGeometry>
        </mxCell>
        <mxCell id="7RI2X-wWIbWIkcvbnXoQ-62" value="" style="endArrow=none;html=1;rounded=0;" edge="1" parent="1">
          <mxGeometry width="50" height="50" relative="1" as="geometry">
            <mxPoint x="130" y="300" as="sourcePoint" />
            <mxPoint x="130" y="150" as="targetPoint" />
          </mxGeometry>
        </mxCell>
        <mxCell id="7RI2X-wWIbWIkcvbnXoQ-63" value="" style="endArrow=classic;html=1;rounded=0;" edge="1" parent="1">
          <mxGeometry width="50" height="50" relative="1" as="geometry">
            <mxPoint x="390" y="100" as="sourcePoint" />
            <mxPoint x="530" y="200" as="targetPoint" />
          </mxGeometry>
        </mxCell>
        <mxCell id="7RI2X-wWIbWIkcvbnXoQ-64" value="" style="endArrow=classic;html=1;rounded=0;" edge="1" parent="1">
          <mxGeometry width="50" height="50" relative="1" as="geometry">
            <mxPoint x="60" y="130" as="sourcePoint" />
            <mxPoint x="30" y="280" as="targetPoint" />
          </mxGeometry>
        </mxCell>
        <mxCell id="7RI2X-wWIbWIkcvbnXoQ-65" value="" style="endArrow=classic;html=1;rounded=0;" edge="1" parent="1">
          <mxGeometry width="50" height="50" relative="1" as="geometry">
            <mxPoint x="30" y="280" as="sourcePoint" />
            <mxPoint x="50" y="450" as="targetPoint" />
          </mxGeometry>
        </mxCell>
      </root>
    </mxGraphModel>
  </diagram>
</mxfile>
